<?xml version="1.0" standalone="no"?>
<!DOCTYPE svg PUBLIC "-//W3C//DTD SVG 20010904//EN"
 "http://www.w3.org/TR/2001/REC-SVG-20010904/DTD/svg10.dtd">
<svg version="1.0" xmlns="http://www.w3.org/2000/svg"
 width="582.000000pt" height="418.000000pt" viewBox="0 0 582.000000 418.000000"
 preserveAspectRatio="xMidYMid meet">
<g transform="translate(0.000000,418.000000) scale(0.100000,-0.100000)"
fill="#000000" stroke="none">
<path d="M2310 4048 c-25 -11 -99 -40 -165 -65 -231 -86 -900 -355 -945 -379
-47 -26 -128 -115 -169 -187 -50 -88 -181 -358 -181 -374 0 -3 -7 -19 -15 -36
-21 -45 -166 -441 -236 -642 -33 -93 -63 -179 -68 -190 -5 -11 -18 -47 -29
-80 -11 -33 -37 -105 -57 -160 -79 -214 -93 -263 -82 -274 6 -6 16 -11 22 -11
6 0 44 -11 85 -24 41 -13 140 -44 220 -69 80 -25 262 -83 404 -128 188 -59
264 -79 275 -72 15 10 60 85 118 201 15 28 30 52 34 52 3 0 9 -44 12 -97 4
-54 12 -152 19 -218 8 -77 12 -299 13 -623 l0 -502 1515 2 1515 3 -5 105 c-17
349 4 1040 39 1290 7 53 8 54 19 27 7 -15 36 -69 65 -120 29 -51 56 -100 60
-109 8 -23 22 -22 99 2 35 11 119 37 188 59 69 22 206 65 305 96 244 76 429
136 433 140 5 4 -173 509 -323 920 -20 55 -40 111 -45 125 -73 231 -251 629
-340 759 -82 120 -103 132 -520 296 -107 42 -204 80 -215 85 -11 5 -85 34
-165 65 -80 31 -203 79 -273 106 l-129 50 -61 -29 c-340 -164 -872 -170 -1267
-15 -36 15 -66 30 -68 35 -6 13 -33 8 -82 -14z m50 -47 c0 -53 72 -201 149
-304 147 -200 410 -318 641 -287 109 14 132 21 225 65 144 68 258 176 331 312
13 26 28 50 33 53 4 3 21 43 36 90 15 47 29 86 29 87 1 1 24 -6 51 -16 50 -19
65 -34 46 -46 -6 -3 -11 -15 -11 -26 0 -10 -4 -27 -9 -37 -5 -9 -23 -47 -39
-83 -85 -190 -242 -350 -425 -434 -133 -60 -178 -70 -337 -70 -165 0 -211 11
-350 77 -119 57 -183 105 -274 208 -47 52 -136 187 -136 205 0 4 15 3 32 -1
27 -5 31 -4 21 7 -6 8 -32 53 -58 101 l-46 88 23 9 c13 4 30 11 38 14 26 9 30
8 30 -12z m285 -75 c325 -81 683 -69 990 36 50 16 96 35 103 41 22 18 23 1 1
-55 -24 -64 -31 -68 -155 -102 -188 -52 -263 -61 -509 -61 -211 1 -241 3 -357
28 -70 15 -160 37 -200 50 -76 25 -94 44 -113 120 l-7 26 74 -29 c40 -16 118
-40 173 -54z m-449 -37 c-25 -45 -46 -85 -46 -90 0 -4 21 -6 48 -2 l47 5 0
-911 0 -911 -278 0 -279 0 7 50 7 49 -99 -54 c-59 -32 -99 -49 -100 -42 -2 7
-27 154 -57 327 -77 441 -184 1046 -206 1165 -10 55 -18 100 -17 101 1 0 182
72 402 159 220 87 447 177 505 200 58 23 107 41 109 39 2 -2 -17 -40 -43 -85z
m1919 11 c77 -29 154 -58 170 -66 17 -7 75 -31 130 -52 372 -146 515 -207 515
-217 0 -7 -7 -48 -15 -91 -8 -44 -49 -270 -90 -504 -97 -546 -108 -610 -144
-819 -17 -95 -32 -175 -34 -177 -1 -2 -14 3 -27 10 -72 38 -127 70 -141 82 -8
8 -19 14 -22 14 -7 0 -6 -7 8 -72 l5 -28 -1100 0 -1100 0 0 906 c0 601 3 903
10 899 6 -3 10 -12 10 -20 0 -7 27 -54 60 -103 103 -154 256 -279 420 -344
112 -44 167 -53 315 -53 116 0 154 4 219 23 155 45 327 154 427 273 45 53 139
190 139 203 0 3 11 28 24 56 13 27 29 72 36 99 10 42 15 49 28 42 10 -5 80
-32 157 -61z m-1835 -30 c12 -8 22 -48 13 -53 -4 -3 -22 3 -39 12 -32 17 -33
32 -5 65 16 18 16 18 20 0 2 -11 7 -21 11 -24z m325 -74 c282 -74 668 -74 946
-2 52 14 105 28 118 32 l23 7 -18 -29 c-109 -174 -268 -297 -439 -339 -87 -21
-239 -22 -319 0 -144 38 -302 152 -397 288 -52 75 -60 93 -31 78 10 -5 63 -21
117 -35z m-1381 -461 c20 -110 47 -265 61 -345 26 -152 67 -383 133 -760 22
-124 52 -297 67 -385 l27 -160 -82 -148 c-65 -117 -86 -147 -99 -141 -9 3
-108 35 -221 71 -318 100 -705 224 -706 226 -1 2 295 834 374 1052 119 324
269 641 353 744 29 36 54 60 55 55 2 -5 19 -99 38 -209z m3801 153 c89 -102
230 -407 365 -788 26 -74 64 -178 83 -230 20 -52 72 -198 118 -325 45 -126 99
-279 121 -339 21 -60 35 -112 31 -116 -4 -3 -35 -14 -68 -24 -33 -11 -85 -27
-115 -37 -30 -10 -129 -41 -220 -69 -347 -107 -456 -141 -494 -155 -22 -8 -40
-14 -42 -12 -1 1 -15 29 -32 62 -16 33 -53 100 -82 149 -50 87 -51 91 -41 135
6 25 45 242 86 481 42 239 94 534 115 655 67 377 90 507 102 588 7 42 15 77
19 77 4 0 28 -24 54 -52z m-3369 -1513 c15 -37 -31 -51 -64 -19 -10 10 -9 15
5 23 26 15 53 13 59 -4z m2888 9 c8 -3 12 -12 9 -21 -5 -12 -3 -14 8 -8 10 6
11 5 3 -4 -19 -21 -53 -21 -64 0 -18 32 4 48 44 33z m-2934 -84 c46 -27 85
-50 87 -50 2 0 1 23 -3 50 l-7 50 277 0 276 0 2 -780 3 -780 -27 0 c-15 0 -38
4 -52 10 -31 11 -32 7 -8 -28 10 -15 35 -57 55 -94 l37 -68 -323 0 -322 0 3
367 c4 366 -5 611 -34 918 -15 162 -49 391 -65 433 -13 34 7 28 101 -28z
m2855 25 c-3 -14 -7 -36 -10 -50 -3 -14 -4 -25 -1 -25 2 0 43 22 92 50 98 55
108 58 100 33 -28 -87 -64 -379 -88 -713 -14 -188 -18 -897 -5 -967 l7 -43
-1145 0 c-630 0 -1145 2 -1145 5 0 10 64 120 89 153 l25 34 -57 -7 -57 -7 0
781 0 781 1100 0 1100 0 -5 -25z m-2187 -1574 c10 -6 11 -13 1 -35 l-12 -26
-24 21 c-17 17 -20 25 -12 36 13 15 28 16 47 4z"/>
<path d="M2658 2416 c-46 -64 -41 -186 9 -241 34 -36 42 -17 11 25 -33 45 -33
155 0 199 25 35 27 41 10 41 -7 0 -21 -11 -30 -24z"/>
<path d="M3794 2398 c33 -57 35 -133 5 -195 -27 -56 -19 -65 17 -17 40 52 45
140 12 204 -13 25 -31 47 -41 48 -17 3 -16 -1 7 -40z"/>
<path d="M2414 2403 c-20 -60 -59 -160 -67 -170 -7 -10 -2 -13 21 -13 21 0 31
6 35 20 4 15 14 20 41 20 20 0 36 -4 36 -10 0 -5 0 -13 0 -17 0 -8 51 -25 56
-20 2 1 -12 43 -31 92 -19 50 -34 96 -35 103 0 19 -50 15 -56 -5z m44 -75 c7
-28 6 -33 -11 -36 -26 -5 -30 2 -22 37 9 40 22 39 33 -1z"/>
<path d="M2723 2320 l2 -100 43 -1 c23 -1 50 -2 59 -3 9 0 18 5 21 12 2 8 -11
12 -48 12 l-52 0 4 90 c3 80 1 90 -14 90 -16 0 -18 -11 -15 -100z"/>
<path d="M2875 2320 l0 -100 58 0 c31 0 59 0 62 0 3 0 6 3 8 8 1 4 -22 8 -50
10 l-53 3 0 35 0 34 50 0 c28 0 50 5 50 10 0 6 -23 10 -51 10 l-50 0 3 33 c3
31 4 32 51 30 35 -1 47 2 47 13 0 11 -15 14 -62 14 l-63 0 0 -100z"/>
<path d="M3035 2317 c0 -84 3 -102 15 -102 12 0 14 14 12 78 -2 42 -2 77 1 77
2 0 24 -33 48 -74 24 -41 52 -77 61 -80 16 -4 18 5 18 100 0 89 -2 104 -16
104 -14 0 -16 -11 -12 -75 2 -41 1 -75 -2 -75 -3 0 -26 34 -50 75 -63 106 -75
101 -75 -28z"/>
<path d="M3252 2397 c-27 -29 -31 -120 -7 -154 20 -29 75 -39 112 -21 24 11
28 19 28 53 0 38 -1 39 -37 43 -29 3 -38 0 -38 -12 0 -10 9 -16 26 -16 21 0
25 -4 22 -22 -2 -18 -11 -24 -36 -26 -48 -5 -62 12 -62 73 0 39 5 56 20 70 22
20 70 14 70 -10 0 -8 9 -15 20 -15 26 0 25 12 -3 38 -32 30 -87 29 -115 -1z"/>
<path d="M3410 2404 c0 -13 7 -15 30 -10 l30 6 0 -96 c0 -83 2 -95 16 -92 14
3 17 17 15 96 l-2 94 32 -4 c20 -2 34 2 36 10 4 9 -16 12 -76 12 -68 0 -81 -3
-81 -16z"/>
<path d="M3595 2318 c0 -83 3 -103 15 -103 11 0 14 11 11 48 l-3 47 51 0 51 0
0 -51 c0 -36 4 -49 13 -47 8 3 13 36 15 106 2 86 0 102 -13 102 -11 0 -15 -11
-15 -45 l0 -45 -51 0 -51 0 4 45 c2 35 0 45 -12 45 -13 0 -15 -17 -15 -102z"/>
<path d="M2907 1828 c-46 -80 -43 -167 7 -225 32 -37 44 -23 14 17 -33 45 -33
154 0 199 23 32 28 51 12 51 -5 0 -20 -19 -33 -42z"/>
<path d="M3830 1864 c0 -3 10 -20 23 -37 32 -46 32 -162 -1 -206 -26 -36 -20
-62 9 -35 55 50 62 173 14 246 -22 33 -45 50 -45 32z"/>
<path d="M2660 1837 c-45 -23 -62 -84 -40 -143 15 -38 38 -53 82 -54 28 0 41
6 57 26 12 15 21 31 21 35 0 17 -36 9 -53 -11 -38 -44 -69 -15 -65 62 3 49 5
53 30 56 19 2 30 -3 38 -17 13 -25 55 -30 46 -5 -3 9 -6 20 -6 25 0 9 -60 39
-77 39 -4 0 -19 -6 -33 -13z"/>
<path d="M3003 1832 c-44 -33 -50 -130 -12 -171 39 -42 129 -19 129 32 0 24
-15 21 -34 -8 -18 -28 -43 -32 -70 -12 -12 9 -17 27 -18 65 0 61 13 82 53 82
22 0 32 -6 39 -25 10 -26 24 -32 35 -15 10 16 -50 70 -77 70 -13 0 -33 -8 -45
-18z"/>
<path d="M3160 1745 c0 -90 2 -105 16 -105 13 0 15 9 12 45 l-3 45 47 0 48 0
0 -45 c0 -33 4 -45 15 -45 12 0 15 18 15 105 0 87 -3 105 -15 105 -11 0 -15
-12 -15 -47 l0 -48 -50 3 -50 4 6 37 c5 30 2 39 -10 44 -14 6 -16 -6 -16 -98z"/>
<path d="M3357 1843 c-1 -1 -1 -47 1 -102 l3 -101 65 0 c79 0 86 23 8 24 -48
1 -49 2 -52 34 l-3 32 51 0 c67 0 64 24 -3 28 -45 3 -47 5 -47 33 0 29 1 29
56 29 40 0 54 4 52 12 -3 8 -27 13 -67 13 -35 0 -63 -1 -64 -2z"/>
<path d="M3543 1840 c-28 -11 -40 -54 -22 -77 8 -9 30 -23 49 -31 52 -21 61
-31 49 -53 -13 -25 -54 -24 -79 1 -22 22 -40 26 -40 10 0 -24 41 -50 78 -50
49 1 74 21 70 57 -2 22 -13 33 -53 53 -62 31 -70 63 -17 68 27 3 35 -1 39 -17
6 -24 33 -29 33 -7 0 18 -47 56 -69 55 -9 0 -26 -4 -38 -9z"/>
<path d="M3664 1841 c-12 -13 0 -21 31 -21 l35 0 0 -90 c0 -73 3 -90 15 -90
12 0 15 17 15 90 l0 90 37 0 c23 0 33 4 28 9 -10 9 -153 20 -161 12z"/>
<path d="M899 3701 c-36 -36 -39 -86 -8 -125 l21 -27 -22 -52 c-17 -40 -150
-364 -241 -587 -18 -43 -211 -524 -319 -797 l-105 -262 -33 -1 c-108 -1 -110
-169 -2 -186 40 -7 85 22 101 64 11 29 -4 87 -26 100 -12 6 16 84 134 377 275
684 399 989 461 1140 34 83 66 161 70 175 5 20 12 24 34 22 35 -5 70 19 86 57
39 96 -78 175 -151 102z m81 -21 c0 -5 7 -10 15 -10 22 0 23 -54 2 -74 -15
-14 -60 -19 -52 -6 3 5 -4 14 -15 20 -26 14 -26 45 2 64 26 18 48 21 48 6z
m-751 -1879 c12 -11 24 -32 27 -47 3 -16 2 -26 -1 -22 -4 4 -16 -2 -28 -13
-26 -24 -28 -24 -55 1 -22 21 -28 46 -14 66 5 8 37 30 48 34 1 0 11 -9 23 -19z"/>
<path d="M524 3506 c-28 -21 -15 -26 32 -13 35 9 50 7 90 -8 59 -22 102 -52
110 -77 3 -10 12 -18 20 -18 13 0 13 4 0 28 -16 32 -53 65 -95 86 -38 20 -131
21 -157 2z"/>
<path d="M505 3416 c-14 -31 -25 -60 -25 -64 0 -7 176 -78 187 -75 10 3 52
111 45 117 -12 13 -21 4 -32 -31 -7 -21 -16 -42 -20 -46 -5 -6 -46 5 -68 19
-2 1 4 16 12 33 19 37 20 51 3 51 -7 0 -17 -15 -22 -32 -9 -28 -14 -33 -39
-31 -16 1 -30 4 -33 7 -2 2 5 23 17 46 15 30 18 46 11 53 -7 7 -18 -6 -36 -47z"/>
<path d="M460 3306 c0 -14 97 -106 112 -106 5 0 8 -4 8 -8 0 -5 -38 -6 -83 -4
-71 4 -85 2 -90 -12 -6 -14 7 -16 114 -16 130 0 133 2 74 50 -16 14 -51 44
-76 67 -50 46 -59 51 -59 29z"/>
<path d="M375 3096 c-29 -66 -30 -76 -9 -76 9 0 49 -13 91 -30 41 -16 78 -30
82 -30 7 0 51 97 51 113 0 4 -6 7 -14 7 -8 0 -20 -20 -27 -45 -15 -49 -16 -50
-54 -33 -29 13 -30 15 -10 62 13 31 13 36 1 36 -8 0 -20 -16 -27 -35 -14 -38
-25 -42 -54 -21 -19 14 -19 15 -2 52 12 25 15 40 8 47 -7 7 -18 -7 -36 -47z"/>
<path d="M334 2994 c-4 -10 -15 -38 -25 -62 l-18 -42 37 -16 c20 -9 65 -27 98
-39 l62 -24 21 56 c25 66 13 100 -13 38 -9 -21 -16 -41 -16 -46 0 -14 -34 -11
-55 4 -17 13 -17 16 -1 47 19 40 19 37 1 44 -10 4 -18 -6 -26 -35 -10 -33 -15
-38 -33 -33 -36 11 -39 21 -22 65 12 28 14 45 7 52 -7 7 -12 4 -17 -9z"/>
<path d="M437 2763 c-13 -58 -18 -59 -104 -24 -88 35 -93 36 -93 19 0 -7 42
-29 93 -49 l92 -37 22 47 c26 54 28 71 9 71 -7 0 -16 -12 -19 -27z"/>
<path d="M232 2690 c-21 -9 -42 -46 -42 -76 0 -19 36 -54 56 -54 8 0 33 18 55
40 45 45 54 48 68 22 13 -25 -8 -66 -37 -70 -26 -4 -30 -32 -4 -32 49 0 87 73
63 119 -18 33 -59 27 -103 -16 -32 -31 -42 -36 -56 -26 -29 18 -8 73 29 73 11
0 19 7 19 15 0 17 -14 18 -48 5z"/>
<path d="M145 2541 c17 -34 57 -67 104 -87 39 -16 124 -18 152 -3 31 16 13 28
-27 18 -61 -17 -150 14 -197 71 -33 39 -53 40 -32 1z"/>
<path d="M85 2359 c-14 -17 -25 -38 -25 -48 0 -9 -5 -22 -12 -29 -6 -6 -10
-13 -7 -15 3 -3 56 -24 185 -74 14 -5 44 67 44 107 0 23 -7 33 -31 46 -23 11
-34 13 -42 5 -15 -15 -27 -14 -27 3 0 17 -11 25 -40 31 -12 2 -28 -7 -45 -26z
m65 -41 c0 -35 -12 -47 -37 -37 -26 9 -27 13 -13 40 15 27 50 25 50 -3z m79
-12 c8 -9 8 -21 2 -39 -9 -24 -13 -25 -41 -16 l-30 11 17 29 c19 32 34 36 52
15z"/>
</g>
</svg>
