<svg xmlns="http://www.w3.org/2000/svg" width="36" height="24" viewBox="0 0 36 24" aria-hidden="true">
  <rect width="36" height="24" fill="#b22234"/>
  <g fill="#fff">
    <rect y="2" width="36" height="2"/>
    <rect y="6" width="36" height="2"/>
    <rect y="10" width="36" height="2"/>
    <rect y="14" width="36" height="2"/>
    <rect y="18" width="36" height="2"/>
    <rect y="22" width="36" height="2"/>
  </g>
  <rect width="14.4" height="10.8" fill="#3c3b6e"/>
  <!-- Stylized stars grid (dots) -->
  <g fill="#fff">
    <circle cx="1.2" cy="1.2" r="0.35"/>
    <circle cx="3.6" cy="1.2" r="0.35"/>
    <circle cx="6.0" cy="1.2" r="0.35"/>
    <circle cx="8.4" cy="1.2" r="0.35"/>
    <circle cx="10.8" cy="1.2" r="0.35"/>
    <circle cx="1.2" cy="3.0" r="0.35"/>
    <circle cx="3.6" cy="3.0" r="0.35"/>
    <circle cx="6.0" cy="3.0" r="0.35"/>
    <circle cx="8.4" cy="3.0" r="0.35"/>
    <circle cx="10.8" cy="3.0" r="0.35"/>
    <circle cx="2.4" cy="4.2" r="0.35"/>
    <circle cx="4.8" cy="4.2" r="0.35"/>
    <circle cx="7.2" cy="4.2" r="0.35"/>
    <circle cx="9.6" cy="4.2" r="0.35"/>
    <circle cx="1.2" cy="5.4" r="0.35"/>
    <circle cx="3.6" cy="5.4" r="0.35"/>
    <circle cx="6.0" cy="5.4" r="0.35"/>
    <circle cx="8.4" cy="5.4" r="0.35"/>
    <circle cx="10.8" cy="5.4" r="0.35"/>
    <circle cx="2.4" cy="6.6" r="0.35"/>
    <circle cx="4.8" cy="6.6" r="0.35"/>
    <circle cx="7.2" cy="6.6" r="0.35"/>
    <circle cx="9.6" cy="6.6" r="0.35"/>
    <circle cx="1.2" cy="7.8" r="0.35"/>
    <circle cx="3.6" cy="7.8" r="0.35"/>
    <circle cx="6.0" cy="7.8" r="0.35"/>
    <circle cx="8.4" cy="7.8" r="0.35"/>
    <circle cx="10.8" cy="7.8" r="0.35"/>
  </g>
</svg>
