<?xml version="1.0" standalone="no"?>
<!DOCTYPE svg PUBLIC "-//W3C//DTD SVG 20010904//EN"
 "http://www.w3.org/TR/2001/REC-SVG-20010904/DTD/svg10.dtd">
<svg version="1.0" xmlns="http://www.w3.org/2000/svg"
 width="295.000000pt" height="291.000000pt" viewBox="0 0 295.000000 291.000000"
 preserveAspectRatio="xMidYMid meet">
<metadata>
Created by potrace 1.10, written by Peter Selinger 2001-2011
</metadata>
<g transform="translate(0.000000,291.000000) scale(0.100000,-0.100000)"
fill="#000000" stroke="none">
<path d="M1052 2517 c-39 -41 -72 -116 -72 -162 0 -38 5 -48 30 -66 27 -21 28
-23 12 -35 -10 -7 -35 -15 -55 -19 -21 -4 -40 -11 -43 -16 -3 -5 -15 -9 -26
-9 -24 0 -108 -82 -108 -105 0 -8 -4 -15 -10 -15 -5 0 -10 -6 -10 -12 0 -7
-18 -47 -40 -88 -22 -41 -51 -100 -66 -130 -14 -30 -30 -63 -35 -73 -6 -10 -7
-22 -4 -27 4 -6 1 -10 -4 -10 -6 0 -11 -6 -11 -14 0 -7 -7 -27 -15 -42 -8 -16
-15 -37 -15 -46 0 -10 -5 -18 -11 -18 -5 0 -9 -8 -8 -17 2 -10 -5 -36 -15 -58
-10 -22 -20 -55 -23 -73 -3 -18 -10 -35 -14 -38 -12 -7 -11 -44 1 -44 6 0 10
9 10 19 0 11 4 22 9 25 5 4 12 24 16 47 4 22 13 53 21 67 8 15 14 35 14 44 0
9 4 19 9 22 5 4 12 24 16 46 4 22 11 40 15 40 5 0 12 15 15 33 4 17 11 37 15
42 4 6 11 25 15 43 3 17 11 32 16 32 5 0 9 6 9 14 0 8 6 21 14 28 7 8 17 24
20 36 4 12 11 22 16 22 5 0 12 16 16 35 3 19 10 35 14 35 5 0 11 14 15 30 4
17 11 30 16 30 5 0 9 6 9 13 0 29 105 107 145 107 8 0 15 5 15 11 0 6 7 9 15
6 8 -4 26 0 41 8 24 12 51 10 64 -5 5 -6 169 -86 205 -100 11 -4 36 -15 56
-24 23 -10 65 -15 118 -15 76 0 111 8 186 39 11 5 31 12 45 15 37 10 154 67
162 79 4 6 8 8 8 3 0 -4 11 0 25 9 25 16 85 12 85 -7 0 -6 6 -9 13 -7 6 1 32
-7 57 -19 47 -22 76 -33 86 -32 15 2 93 -93 99 -121 4 -16 11 -30 16 -30 5 0
9 -7 9 -16 0 -19 41 -107 53 -112 4 -2 7 -9 7 -15 1 -7 9 -30 20 -52 11 -22
19 -50 20 -62 0 -13 4 -23 9 -23 5 0 12 -20 15 -45 4 -25 11 -45 16 -45 4 0
11 -27 15 -60 4 -33 11 -62 15 -65 4 -3 11 -28 15 -55 4 -27 10 -52 15 -55 4
-3 11 -34 15 -70 3 -36 11 -67 16 -70 5 -4 9 -17 9 -30 0 -13 4 -26 8 -29 5
-3 7 -19 4 -36 -2 -16 0 -36 6 -43 5 -6 13 -41 16 -77 4 -36 13 -71 19 -79 16
-19 17 -428 1 -439 -15 -10 -44 -71 -44 -94 0 -16 -8 -18 -63 -18 -35 0 -68
-5 -74 -11 -7 -7 -18 -1 -37 21 -14 17 -26 35 -26 39 0 9 83 21 146 21 23 0
46 6 52 13 9 10 -4 12 -61 9 -40 -2 -76 -8 -82 -13 -25 -24 -101 1 -116 38 -2
5 -18 18 -34 30 l-30 21 8 143 c12 202 0 1144 -15 1242 -14 89 -33 105 -24 20
4 -32 12 -257 18 -500 11 -454 3 -826 -22 -978 -6 -38 -12 -81 -12 -95 0 -50
-3 -51 -267 -45 -135 3 -424 7 -641 10 -217 3 -398 5 -402 5 -5 0 -8 10 -8 21
l0 21 650 -4 c442 -2 649 0 647 7 -3 7 -219 11 -650 13 l-646 2 -6 53 c-8 68
-17 245 -18 327 0 109 22 564 29 585 4 11 12 94 20 185 16 194 40 424 49 461
4 15 2 30 -4 33 -7 5 -11 -4 -11 -23 0 -17 -4 -40 -10 -53 -11 -25 -25 -170
-41 -403 -5 -82 -14 -170 -20 -195 -5 -25 -15 -154 -21 -285 -12 -271 -13
-335 -7 -454 l4 -84 -50 -35 c-27 -19 -51 -39 -53 -44 -2 -4 -10 -8 -18 -8 -8
0 -14 -5 -14 -11 0 -7 -5 -8 -12 -2 -7 5 -40 17 -73 27 -33 10 -67 21 -75 24
-8 3 -19 7 -25 7 -24 4 -45 18 -45 30 0 7 -6 15 -12 18 -17 5 -18 394 -2 405
6 4 15 30 19 57 4 28 10 55 15 60 4 6 11 31 14 57 4 26 11 50 16 53 5 3 12 28
16 55 4 28 10 50 15 50 5 0 9 9 9 20 0 11 -4 20 -10 20 -5 0 -10 -9 -10 -20 0
-11 -4 -20 -9 -20 -5 0 -12 -23 -16 -51 -4 -28 -13 -63 -21 -77 -8 -15 -14
-39 -14 -54 0 -16 -5 -28 -11 -28 -7 0 -9 -11 -5 -30 3 -16 2 -30 -2 -30 -4 0
-16 -46 -26 -102 -30 -164 -16 -353 32 -410 11 -13 11 -20 0 -37 -10 -16 -10
-23 0 -33 9 -9 12 -8 12 9 0 31 26 48 53 35 28 -13 78 -26 95 -23 6 1 12 -3
12 -9 0 -5 8 -10 19 -10 18 0 18 -2 3 -35 -13 -27 -21 -34 -37 -30 -11 3 -38
10 -60 16 -22 6 -53 14 -69 19 -16 6 -32 7 -35 5 -11 -12 20 -26 80 -36 35 -5
72 -14 81 -20 27 -14 38 -11 38 11 0 11 4 20 9 20 5 0 11 9 14 20 3 11 13 23
24 27 10 3 43 26 74 50 l57 43 7 -93 c5 -60 12 -98 23 -109 14 -17 59 -18 666
-18 753 0 670 -15 682 124 4 47 11 86 16 86 14 0 104 -95 124 -131 11 -19 23
-37 29 -41 12 -9 167 2 179 13 5 4 17 31 27 60 11 29 24 56 31 60 18 11 24
305 8 379 -6 30 -16 87 -21 125 -6 39 -14 79 -19 90 -5 11 -12 45 -16 75 -3
30 -10 60 -14 65 -4 6 -11 38 -15 73 -4 34 -11 65 -16 68 -5 3 -9 16 -9 30 0
13 -4 24 -8 24 -5 0 -7 14 -4 30 2 17 0 30 -6 30 -5 0 -13 25 -17 55 -3 30
-10 57 -15 60 -5 3 -12 26 -16 50 -3 25 -10 48 -15 51 -5 3 -9 12 -9 20 0 21
-67 173 -81 184 -4 3 -10 20 -14 38 -3 17 -10 32 -15 32 -5 0 -11 12 -15 28
-11 51 -58 105 -115 134 -30 15 -63 28 -72 28 -10 0 -18 5 -18 10 0 6 -4 10
-10 10 -19 0 -90 35 -90 44 0 5 8 18 17 29 27 29 20 84 -18 147 -59 98 -18 90
-474 90 l-402 0 -21 -23z m818 1 c0 -5 6 -8 13 -8 12 0 17 -7 47 -66 8 -16 18
-32 23 -35 4 -3 8 -21 9 -41 2 -46 -30 -90 -90 -125 -52 -31 -150 -73 -169
-73 -7 0 -13 -4 -13 -10 0 -5 -7 -10 -15 -10 -9 0 -41 -9 -72 -20 -64 -22
-144 -28 -108 -8 11 6 34 22 50 35 17 12 41 31 54 40 45 33 166 148 201 191
19 23 40 48 47 56 16 18 28 66 16 66 -5 0 -14 -12 -20 -27 -20 -47 -35 -65
-118 -148 -83 -83 -112 -109 -155 -136 -14 -9 -36 -26 -49 -38 -29 -25 -39
-26 -71 -4 -53 37 -165 137 -249 221 -64 66 -106 126 -96 142 5 8 765 6 765
-2z m-740 -90 c27 -36 108 -119 155 -158 118 -99 158 -130 166 -130 5 0 9 -7
9 -15 0 -22 -66 -19 -115 5 -22 11 -48 19 -57 20 -10 0 -18 5 -18 10 0 6 -7
10 -15 10 -8 0 -32 9 -52 20 -21 11 -43 20 -50 20 -7 0 -13 3 -13 8 0 4 -17
16 -37 27 -68 36 -103 75 -103 117 0 20 5 40 11 43 5 4 9 14 7 23 -3 17 8 35
46 75 19 20 19 20 30 -11 6 -17 22 -46 36 -64z"/>
<path d="M298 2198 c16 -16 18 -1808 2 -1808 -5 0 -10 -4 -10 -10 0 -5 17 -10
38 -10 33 1 35 2 19 14 -16 12 -17 67 -17 906 0 839 1 894 18 906 15 12 12 13
-22 14 -31 0 -37 -3 -28 -12z"/>
<path d="M910 2025 c0 -19 5 -35 10 -35 6 0 10 6 10 13 0 17 1169 14 1180 -3
9 -15 16 -3 18 33 2 26 -13 38 -20 17 -5 -16 -1178 -19 -1178 -2 0 6 -4 12
-10 12 -5 0 -10 -16 -10 -35z"/>
<path d="M2391 2039 c-22 -9 -23 -11 -7 -22 11 -8 20 -37 27 -82 5 -39 14 -83
19 -100 5 -16 12 -55 15 -85 4 -30 9 -62 13 -70 3 -8 11 -44 18 -80 7 -36 20
-103 29 -150 9 -47 22 -115 28 -152 7 -36 15 -70 20 -74 4 -4 7 -19 7 -33 0
-24 31 -191 50 -271 5 -19 14 -64 20 -100 12 -66 36 -192 47 -243 3 -15 0 -33
-6 -41 -15 -18 -6 -23 29 -18 30 4 44 32 16 32 -8 0 -16 14 -19 33 -5 33 -27
147 -53 277 -14 70 -22 112 -57 295 -7 39 -16 77 -19 85 -3 8 -11 45 -17 83
-6 37 -16 97 -22 135 -6 37 -15 76 -19 87 -4 11 -13 52 -20 90 -6 39 -18 104
-26 145 -8 41 -19 102 -25 135 -5 33 -14 69 -20 79 -9 15 -8 21 5 28 19 11 21
28 4 27 -7 0 -24 -5 -37 -10z"/>
<path d="M1481 1968 c-8 -19 -46 -104 -59 -131 -2 -4 9 -5 25 -1 15 4 30 11
31 16 6 13 72 9 78 -5 2 -7 17 -12 32 -11 38 3 38 3 26 12 -10 7 -28 44 -54
110 -10 26 -18 32 -41 32 -21 0 -32 -6 -38 -22z m54 -61 c7 -24 5 -27 -16 -24
-25 4 -26 8 -14 45 9 27 21 19 30 -21z"/>
<path d="M100 1295 l0 -75 80 0 c76 0 81 1 92 25 9 21 8 28 -7 45 -10 11 -13
20 -7 20 16 0 15 33 0 48 -7 7 -42 12 -85 12 l-73 0 0 -75z m118 28 c2 -9 -9
-13 -37 -13 -39 0 -50 8 -34 24 11 11 66 2 71 -11z m10 -61 c3 -10 -7 -12 -39
-10 -24 2 -44 9 -47 16 -3 10 7 12 39 10 24 -2 44 -9 47 -16z"/>
<path d="M2621 1358 c-42 -22 -48 -80 -13 -120 24 -28 103 -24 130 5 12 13 22
26 22 30 0 13 -48 7 -60 -8 -26 -31 -70 -11 -70 32 0 33 35 49 65 29 26 -17
65 -21 65 -8 0 36 -96 63 -139 40z"/>
<path d="M1120 1130 c0 -11 -4 -20 -10 -20 -5 0 -12 -16 -16 -35 -3 -19 -10
-35 -15 -35 -5 0 -9 -7 -9 -15 0 -8 4 -15 9 -15 10 0 41 61 41 82 0 36 17 38
361 38 367 0 353 2 365 -58 4 -18 10 -32 14 -32 5 0 11 -13 15 -30 4 -16 10
-30 15 -30 4 0 10 -12 14 -27 6 -31 33 -70 41 -61 3 3 -1 18 -10 34 -8 16 -15
35 -15 42 0 6 -4 12 -10 12 -5 0 -10 5 -10 11 0 5 -8 29 -19 52 -10 23 -24 57
-32 75 l-14 32 -357 0 c-351 0 -358 0 -358 -20z"/>
<path d="M1046 966 c-9 -19 -16 -39 -16 -45 0 -6 -3 -11 -7 -11 -5 0 -19 -25
-33 -55 -14 -30 -28 -55 -32 -55 -12 0 -9 -30 2 -30 6 0 10 -9 10 -19 0 -11 5
-23 10 -26 6 -4 8 -11 4 -16 -3 -5 -1 -15 4 -22 5 -7 13 -27 17 -44 3 -18 11
-33 16 -33 5 0 9 -6 9 -14 0 -21 80 -27 450 -32 380 -6 470 4 470 52 0 8 -4
14 -10 14 -5 0 -10 -6 -10 -14 0 -8 -8 -17 -17 -21 -27 -11 -601 -17 -743 -8
-116 7 -126 10 -135 31 -5 12 -13 22 -16 22 -3 0 -4 11 -1 25 2 15 0 25 -7 25
-6 0 -11 7 -11 16 0 9 -7 32 -17 51 -10 21 -12 37 -7 41 10 7 42 64 71 127 8
17 18 38 24 47 11 22 11 28 0 28 -5 0 -16 -15 -25 -34z"/>
<path d="M1940 871 c0 -5 3 -11 8 -13 4 -1 15 -20 26 -40 18 -35 18 -39 2 -72
-9 -19 -16 -41 -16 -49 0 -9 -4 -19 -10 -22 -12 -7 -14 -35 -2 -35 9 0 28 44
38 85 4 17 11 36 17 43 7 9 4 24 -9 50 -27 52 -54 79 -54 53z"/>
</g>
</svg>
