<?xml version="1.0" standalone="no"?>
<!DOCTYPE svg PUBLIC "-//W3C//DTD SVG 20010904//EN"
 "http://www.w3.org/TR/2001/REC-SVG-20010904/DTD/svg10.dtd">
<svg version="1.0" xmlns="http://www.w3.org/2000/svg"
 width="600.000000pt" height="489.000000pt" viewBox="0 0 600.000000 489.000000"
 preserveAspectRatio="xMidYMid meet">
<g transform="translate(0.000000,489.000000) scale(0.100000,-0.100000)"
fill="#000000" stroke="none">
<path d="M2235 4655 c-55 -19 -122 -44 -150 -54 -27 -11 -151 -54 -275 -97
-124 -42 -231 -82 -238 -87 -12 -9 -132 -151 -350 -411 -52 -61 -115 -136
-142 -166 -26 -30 -80 -93 -120 -140 -40 -47 -84 -98 -99 -115 -14 -16 -85
-99 -156 -184 -135 -160 -292 -345 -374 -441 -109 -127 -216 -268 -234 -309
-32 -73 -33 -152 -4 -272 32 -128 77 -317 112 -464 25 -106 73 -304 135 -560
16 -66 45 -187 65 -270 20 -82 56 -231 80 -330 24 -99 58 -238 75 -310 17 -72
41 -168 53 -215 l22 -85 483 -2 c374 -2 482 0 483 10 0 6 0 161 -1 343 l-2
331 1366 2 1366 2 0 -345 0 -346 487 3 488 2 11 65 c7 36 17 83 23 105 12 47
86 352 130 540 17 72 35 144 40 160 5 17 17 64 26 105 26 112 168 708 245
1025 83 343 83 343 77 411 -7 90 -45 150 -258 401 -96 114 -278 330 -404 478
-125 149 -249 295 -274 325 -25 30 -62 72 -82 95 -19 22 -71 83 -115 135 -43
52 -106 123 -139 159 l-60 64 43 -7 43 -6 -31 52 c-18 29 -40 72 -51 96 -11
23 -23 42 -27 42 -5 0 -15 -19 -23 -42 -9 -24 -20 -41 -25 -38 -5 3 -30 30
-55 61 -36 42 -58 59 -95 71 -27 9 -148 51 -269 93 -121 42 -274 95 -340 117
l-120 40 -77 -36 c-136 -65 -217 -87 -388 -107 -224 -26 -472 12 -668 102 -35
16 -73 31 -85 34 -12 2 -67 -11 -122 -30z m110 -42 c11 -61 63 -176 108 -241
131 -187 371 -287 607 -253 188 26 370 151 462 316 22 40 56 143 60 180 2 24
7 29 23 27 58 -9 75 -15 75 -26 0 -22 -58 -174 -86 -227 -52 -97 -211 -247
-314 -297 -29 -13 -95 -35 -158 -52 -63 -16 -256 -14 -322 4 -114 31 -129 38
-232 102 -47 30 -49 32 -126 107 -64 63 -162 217 -138 217 2 0 16 -7 32 -15
15 -8 30 -12 32 -10 3 2 -14 40 -37 84 -43 83 -49 106 -28 114 27 11 35 5 42
-30z m86 1 c235 -119 664 -140 948 -48 41 13 95 36 119 49 25 14 47 25 50 25
6 0 -4 -59 -16 -91 -9 -23 -25 -31 -109 -57 -171 -53 -200 -57 -463 -57 -233
0 -250 2 -351 27 -163 42 -196 59 -219 114 -20 46 -24 64 -15 64 3 0 28 -12
56 -26z m-191 -9 c0 -11 -53 -111 -67 -127 -25 -28 -7 -40 34 -23 20 8 38 13
41 11 2 -3 4 -76 4 -162 l-1 -156 -88 -81 c-158 -143 -267 -244 -427 -392 -65
-60 -122 -112 -128 -114 -5 -2 -8 153 -6 414 l3 418 40 14 c22 8 135 48 250
88 116 40 235 82 265 93 57 21 80 26 80 17z m1496 -4 c5 -5 32 -16 59 -24 42
-13 348 -119 490 -170 l40 -14 3 -417 c1 -229 -1 -416 -5 -416 -3 0 -41 33
-82 73 -42 39 -119 110 -171 157 -52 47 -135 123 -185 170 -77 73 -147 137
-301 273 l-33 29 34 46 c54 77 125 239 125 287 0 17 11 19 26 6z m-1451 -61
c15 -25 13 -50 -4 -50 -27 0 -42 20 -30 42 11 20 25 23 34 8z m234 -91 c128
-45 205 -54 451 -53 144 0 259 5 298 13 56 11 168 45 215 65 28 13 20 -10 -22
-67 -195 -265 -540 -333 -820 -163 -60 37 -128 104 -179 175 -36 51 -40 66
-14 56 9 -4 41 -16 71 -26z m-199 -96 c18 -32 39 -66 48 -75 14 -16 11 -21
-29 -57 -24 -22 -47 -40 -51 -41 -5 0 -8 52 -8 115 0 63 2 115 4 115 2 0 19
-26 36 -57z m2120 -88 c0 -5 -9 -25 -21 -44 l-20 -34 28 7 c15 4 36 8 45 9 17
2 18 -98 18 -1928 l0 -1930 -23 3 c-12 2 -26 8 -31 13 -14 13 -36 11 -36 -3 0
-7 9 -24 20 -38 30 -39 26 -52 -17 -48 l-38 3 -2 2045 -3 2045 40 -45 c21 -25
39 -49 40 -55z m-2870 -1952 l0 -2038 -467 2 -468 2 -3 23 c-2 13 -23 102 -47
198 -43 176 -173 711 -247 1020 -21 91 -50 210 -63 265 -13 55 -40 165 -59
245 -19 80 -51 211 -71 291 -39 163 -43 225 -19 296 17 48 98 162 204 283 31
36 132 155 225 265 92 110 184 218 204 241 20 23 54 63 77 90 23 27 83 98 135
158 52 60 134 157 183 215 104 124 177 209 227 266 19 22 64 76 99 120 57 70
79 94 88 95 1 0 2 -917 2 -2037z m2950 1957 c7 -14 8 -26 1 -38 -6 -9 -11 -11
-11 -4 0 6 -7 12 -15 12 -16 0 -19 9 -9 34 8 22 21 20 34 -4z m-2046 -97 c68
-63 162 -117 271 -154 62 -21 87 -24 220 -24 170 1 220 12 345 76 76 39 200
132 200 149 0 32 41 -3 555 -477 l260 -239 3 -642 c1 -464 -1 -642 -9 -642
-14 0 -139 69 -157 86 -18 18 -35 8 -23 -14 4 -9 11 -29 15 -44 l6 -28 -937 0
-938 0 0 953 0 954 55 51 c30 28 59 51 64 52 5 0 36 -26 70 -57z m2066 -12 c0
-6 24 -38 53 -72 28 -34 74 -90 102 -123 27 -34 58 -70 68 -81 11 -11 101
-116 201 -234 99 -117 213 -251 251 -296 350 -412 568 -680 586 -722 24 -56
22 -151 -5 -263 -9 -36 -32 -130 -51 -210 -20 -80 -49 -201 -65 -270 -42 -177
-90 -379 -101 -420 -16 -62 -76 -313 -93 -390 -10 -41 -22 -88 -27 -105 -4
-16 -29 -118 -54 -225 -25 -107 -57 -240 -70 -295 -13 -55 -27 -117 -32 -138
l-8 -38 -360 0 c-198 0 -364 0 -369 1 -4 0 3 15 18 34 42 55 32 70 -25 40 -17
-8 -33 -14 -35 -11 -3 2 -6 3474 -4 3820 0 4 5 7 10 7 6 0 10 -4 10 -9z
m-2290 -1006 l0 -930 -241 -3 -241 -2 6 22 c3 13 9 33 12 46 7 23 -13 31 -31
13 -14 -14 -135 -81 -146 -81 -5 0 -9 266 -9 643 l1 642 67 59 c37 32 117 105
177 161 61 56 169 154 240 219 72 65 134 125 138 133 5 8 13 13 18 11 6 -2 9
-369 9 -933z m-502 -955 c-1 -37 -15 -39 -29 -3 -7 19 -7 28 3 34 18 12 27 2
26 -31z m2471 16 c9 -11 8 -15 -5 -20 -20 -8 -39 7 -30 23 10 15 21 14 35 -3z
m-2534 -57 c41 -22 77 -45 81 -50 3 -5 10 -9 16 -9 10 0 7 36 -7 73 -7 16 8
17 234 17 l241 0 0 -564 c0 -310 3 -571 6 -580 5 -12 0 -16 -21 -16 -14 0 -35
5 -46 11 -35 18 -42 4 -14 -29 19 -23 23 -33 13 -36 -7 -3 -141 -4 -298 -3
l-285 2 -3 613 c-1 336 0 612 3 612 3 0 39 -18 80 -41z m2462 2 c-3 -14 -9
-37 -13 -50 l-7 -25 29 21 c32 22 160 93 168 93 3 0 6 -276 6 -614 l0 -614
-995 -1 c-748 0 -995 2 -995 11 0 6 10 22 22 35 29 31 20 36 -30 19 -23 -9
-42 -12 -42 -8 -1 4 -2 267 -3 584 l-2 578 925 2 c509 2 929 1 933 -1 5 -2 7
-15 4 -30z m-1844 -1177 c8 -8 -25 -44 -40 -44 -18 0 -36 37 -20 43 17 8 53 8
60 1z m-76 -66 c13 -12 23 -29 23 -37 0 -14 -35 -16 -322 -15 l-323 2 -3 36
-3 36 302 0 c297 0 303 0 326 -22z m2103 -15 l0 -38 -1025 0 c-564 0 -1025 3
-1025 7 0 3 8 20 18 37 l17 31 1008 0 1007 0 0 -37z m202 -613 c-6 -41 -22
-53 -43 -34 -27 24 -5 68 31 61 10 -2 14 -11 12 -27z m-2962 -78 l0 -28 -447
-1 c-288 0 -452 3 -460 9 -7 6 -13 19 -13 29 0 18 17 19 460 19 l460 0 0 -28z
m2908 3 c7 -14 12 -28 12 -31 0 -3 -28 -4 -62 -2 -60 3 -63 4 -66 31 -3 26 -2
27 51 27 48 0 55 -3 65 -25z m811 18 c0 -5 -4 -17 -8 -28 -8 -20 -17 -20 -385
-20 -207 0 -376 3 -376 8 0 4 6 16 12 27 12 19 24 20 385 20 205 0 373 -3 372
-7z"/>
<path d="M3718 3314 c-4 -4 2 -23 15 -43 29 -47 30 -141 2 -188 -22 -38 -13
-55 15 -27 29 28 45 119 31 172 -12 45 -52 98 -63 86z"/>
<path d="M2661 3277 c-40 -64 -36 -164 8 -218 28 -35 46 -14 19 22 -32 43 -32
141 0 186 26 36 27 43 8 43 -8 0 -24 -15 -35 -33z"/>
<path d="M2440 3279 c0 -16 -49 -140 -62 -156 -5 -7 -7 -17 -3 -23 11 -18 35
-11 45 15 7 19 17 25 39 25 20 0 34 -8 45 -25 27 -41 61 -30 36 13 -6 9 -21
49 -34 87 -19 54 -29 71 -45 73 -12 2 -21 -2 -21 -9z m41 -81 c5 -18 3 -28 -5
-31 -22 -9 -34 7 -29 36 7 34 24 31 34 -5z"/>
<path d="M2732 3193 l3 -98 54 0 c35 0 56 5 59 13 2 8 -10 12 -42 12 l-46 0 0
85 c0 70 -3 85 -15 85 -13 0 -15 -15 -13 -97z"/>
<path d="M2872 3193 l3 -98 59 0 c38 0 61 4 63 13 3 8 -10 12 -46 12 -50 0
-51 1 -51 29 0 28 3 30 43 33 23 2 42 8 42 13 0 6 -19 11 -42 13 -38 3 -43 6
-43 28 0 22 4 24 45 24 33 0 45 4 45 15 0 12 -13 15 -60 15 l-61 0 3 -97z"/>
<path d="M3020 3190 c0 -84 2 -100 16 -100 12 0 15 12 14 63 -1 34 -1 67 -1
72 1 6 22 -23 47 -62 64 -102 74 -98 74 28 0 89 -2 100 -17 97 -14 -2 -16 -14
-14 -66 1 -34 -1 -62 -6 -62 -4 0 -25 30 -47 65 -55 93 -66 87 -66 -35z"/>
<path d="M3226 3271 c-23 -26 -32 -93 -16 -130 15 -38 60 -57 103 -45 29 9 32
14 35 52 l3 42 -35 0 c-20 0 -36 -4 -36 -10 0 -5 9 -10 21 -10 30 0 22 -44 -9
-48 -56 -8 -86 84 -42 128 26 26 36 25 64 -5 28 -30 36 -31 36 -7 0 48 -89 71
-124 33z"/>
<path d="M3370 3275 c0 -10 10 -15 30 -15 l30 0 0 -85 c0 -69 3 -85 15 -85 12
0 15 16 15 84 0 84 0 85 27 88 14 2 28 9 31 16 3 9 -16 12 -72 12 -61 0 -76
-3 -76 -15z"/>
<path d="M3549 3288 c0 -2 -1 -46 -2 -98 -2 -79 1 -95 13 -95 11 0 15 12 15
44 l0 44 45 1 45 1 -3 -42 c-3 -37 10 -64 24 -50 5 4 7 120 5 185 -1 6 -8 12
-16 12 -11 0 -15 -11 -15 -40 l0 -40 -46 0 -46 0 7 40 c6 33 4 40 -9 40 -9 0
-16 -1 -17 -2z"/>
<path d="M2893 2499 c-38 -58 -39 -145 -3 -201 25 -38 50 -50 50 -24 0 8 -6
16 -13 19 -21 8 -40 89 -32 136 4 22 16 52 27 66 14 18 17 30 10 37 -7 7 -19
-3 -39 -33z"/>
<path d="M3772 2523 c33 -63 40 -92 36 -145 -3 -35 -11 -65 -21 -76 -9 -10
-17 -24 -17 -30 0 -21 18 -13 41 20 34 47 38 133 9 192 -12 25 -29 46 -37 46
-8 0 -13 -3 -11 -7z"/>
<path d="M3004 2510 c-69 -27 -73 -159 -7 -189 13 -6 30 -11 37 -11 20 0 66
39 66 56 0 21 -23 17 -38 -6 -30 -49 -89 0 -79 66 3 20 11 42 18 50 17 20 47
17 61 -6 15 -23 38 -27 38 -6 0 16 -47 56 -64 55 -6 0 -21 -4 -32 -9z"/>
<path d="M3373 2512 l-53 -3 0 -95 0 -94 61 0 c44 0 60 3 56 13 -2 7 -22 12
-48 12 -42 0 -44 1 -44 30 0 28 2 30 39 31 55 1 58 22 4 26 -38 3 -43 6 -43
28 0 23 4 25 48 28 26 2 47 7 47 12 0 13 -10 15 -67 12z"/>
<path d="M3505 2510 c-61 -24 -55 -71 13 -103 55 -26 66 -53 26 -63 -21 -5
-31 -2 -45 14 -30 38 -55 19 -26 -19 45 -59 153 -6 118 58 -5 11 -28 25 -50
32 -47 13 -58 26 -41 46 18 21 48 18 62 -5 15 -23 38 -27 38 -6 0 16 -47 56
-64 55 -6 0 -20 -4 -31 -9z"/>
<path d="M3614 2511 c-12 -12 -1 -21 26 -21 l29 0 3 -85 c2 -48 7 -85 13 -85
6 0 11 37 13 85 l3 85 29 0 c17 0 30 4 30 9 0 9 -138 20 -146 12z"/>
<path d="M2641 2484 c-49 -63 -12 -168 59 -166 42 1 94 47 70 62 -22 14 -28
12 -40 -10 -12 -22 -40 -26 -58 -8 -16 16 -16 90 0 106 18 18 44 14 59 -9 17
-24 51 -17 42 9 -10 28 -35 42 -74 42 -29 0 -42 -6 -58 -26z"/>
<path d="M3130 2415 c0 -78 3 -95 15 -95 11 0 15 12 15 45 l0 45 44 0 45 0 3
-47 c5 -83 23 -47 26 52 2 80 0 95 -13 95 -11 0 -15 -11 -15 -40 l0 -40 -45 0
-45 0 0 40 c0 29 -4 40 -15 40 -12 0 -15 -17 -15 -95z"/>
<path d="M4640 2993 c0 -71 19 -103 59 -103 16 0 34 7 41 15 12 14 15 14 31
-1 16 -14 24 -15 44 -6 25 12 30 25 38 100 l5 42 -93 0 c-51 0 -100 3 -109 6
-14 5 -16 -3 -16 -53z m94 -20 c-9 -38 -13 -43 -30 -43 -16 0 -38 46 -28 61 3
5 19 9 35 9 27 0 29 -2 23 -27z m84 0 c-2 -22 -8 -28 -28 -28 -20 0 -26 6 -28
28 -3 24 0 27 28 27 28 0 31 -3 28 -27z"/>
<path d="M4668 2770 c-41 -12 -88 -43 -88 -57 0 -17 3 -17 44 8 19 11 60 23
90 26 47 5 64 2 111 -22 64 -31 85 -25 40 11 -50 40 -131 54 -197 34z"/>
<path d="M4662 2674 c-17 -12 -22 -25 -22 -63 0 -55 12 -71 56 -71 36 0 49 12
68 66 10 31 18 39 37 39 33 0 40 -48 10 -67 -26 -16 -27 -38 -2 -38 41 0 64
73 37 115 -14 21 -24 26 -49 23 -28 -3 -35 -10 -56 -55 -20 -42 -30 -53 -48
-53 -13 0 -23 4 -23 9 0 5 -2 16 -6 24 -3 8 6 28 20 45 15 16 26 33 26 36 0
11 -25 6 -48 -10z"/>
<path d="M4644 2501 c-2 -2 -4 -31 -4 -63 0 -45 3 -58 15 -58 11 0 15 12 15
45 l0 45 96 0 c82 0 95 2 92 16 -2 13 -21 16 -106 17 -57 1 -106 0 -108 -2z"/>
<path d="M4640 2280 c0 -53 3 -71 13 -68 7 3 13 26 15 56 3 52 3 52 38 52 34
0 34 0 34 -45 0 -34 4 -45 16 -45 12 0 15 9 12 43 -3 41 -2 42 27 42 29 0 30
-1 33 -53 5 -79 27 -63 27 19 l0 64 -108 3 -107 3 0 -71z"/>
<path d="M4640 2115 c0 -51 3 -65 15 -65 11 0 15 12 15 50 l0 50 35 0 c35 0
35 0 35 -46 0 -32 4 -44 13 -41 8 2 11 19 9 46 l-3 41 35 0 36 0 0 -51 c0 -36
4 -49 13 -46 8 2 12 24 12 63 l0 59 -108 3 -107 3 0 -66z"/>
<path d="M4771 2009 c-24 -11 -64 -24 -88 -30 -30 -8 -43 -17 -43 -29 0 -13
25 -27 98 -54 109 -40 122 -42 122 -22 0 8 -32 24 -86 40 -47 15 -83 30 -79
34 3 4 40 18 82 32 42 14 78 31 81 38 6 18 -36 14 -87 -9z"/>
<path d="M4640 1765 c0 -51 3 -65 15 -65 11 0 15 12 15 50 l0 50 35 0 c35 0
35 0 35 -46 0 -32 4 -44 12 -42 8 3 11 20 9 46 l-3 42 38 0 37 0 -5 -50 c-4
-43 -3 -50 11 -48 13 3 16 15 15 63 l-2 60 -106 3 -106 3 0 -66z"/>
<path d="M4576 1681 c-3 -4 2 -15 12 -23 67 -60 177 -70 255 -24 26 15 47 34
47 42 0 19 -7 18 -43 -8 -24 -17 -49 -24 -105 -27 -65 -3 -77 0 -112 23 -44
29 -47 30 -54 17z"/>
</g>
</svg>
