<?xml version="1.0" standalone="no"?>
<!DOCTYPE svg PUBLIC "-//W3C//DTD SVG 20010904//EN"
 "http://www.w3.org/TR/2001/REC-SVG-20010904/DTD/svg10.dtd">
<svg version="1.0" xmlns="http://www.w3.org/2000/svg"
 width="273.000000pt" height="215.000000pt" viewBox="0 0 273.000000 215.000000"
 preserveAspectRatio="xMidYMid meet">
<metadata>
Created by potrace 1.10, written by Peter Selinger 2001-2011
</metadata>
<g transform="translate(0.000000,215.000000) scale(0.100000,-0.100000)"
fill="#000000" stroke="none">
<path d="M2172 1738 c-20 -20 -15 -76 7 -88 41 -21 111 -5 111 25 0 19 -15 19
-45 -1 -20 -13 -28 -14 -40 -4 -19 16 -19 34 1 51 12 10 20 10 35 1 21 -14 49
-16 49 -4 0 19 -27 32 -65 32 -23 0 -46 -5 -53 -12z"/>
<path d="M1160 1716 c-25 -7 -52 -15 -60 -18 -8 -3 -35 -11 -60 -18 -58 -14
-131 -35 -200 -55 -30 -9 -73 -21 -95 -27 -22 -5 -49 -14 -60 -19 -11 -5 -38
-13 -60 -18 -70 -17 -139 -38 -179 -55 -35 -14 -38 -18 -31 -43 4 -16 13 -59
20 -98 20 -100 42 -194 57 -240 l13 -40 178 -3 177 -2 0 -413 0 -412 555 -2
c416 -1 555 2 555 10 0 7 1 194 3 417 l2 405 164 5 165 5 26 75 c15 41 32 95
39 120 46 167 49 185 38 196 -14 13 -69 31 -247 78 -194 52 -198 53 -280 76
-41 12 -99 27 -128 35 -28 8 -78 22 -110 32 -38 12 -78 16 -122 13 -96 -6
-230 -6 -275 1 -22 4 -60 1 -85 -5z m68 -47 c10 -19 36 -48 60 -66 38 -28 52
-33 101 -33 48 0 65 5 98 29 22 16 49 47 59 68 l19 39 40 -11 c22 -7 47 -14
55 -17 8 -4 35 -11 60 -18 25 -6 70 -18 100 -26 30 -9 80 -22 110 -29 263 -65
460 -123 460 -136 0 -15 -22 -114 -30 -134 -4 -11 -22 -66 -39 -122 l-32 -103
-167 -2 -167 -3 -2 -405 c-2 -223 -3 -409 -3 -415 0 -7 -184 -10 -532 -10
l-533 0 -5 415 -5 415 -177 -4 -177 -3 -12 43 c-22 80 -65 277 -72 327 -2 13
23 24 133 56 216 63 433 125 485 138 22 5 47 12 55 16 25 10 95 28 98 26 2 -1
11 -17 20 -35z m287 -13 c-70 -92 -201 -84 -267 16 l-16 24 112 -4 c61 -2 129
0 151 5 22 5 41 6 43 1 2 -4 -8 -23 -23 -42z"/>
<path d="M937 1533 c-7 -11 -3 -40 5 -49 4 -3 12 -3 18 1 13 8 899 9 908 1 12
-13 22 -5 22 18 0 27 -15 42 -25 26 -9 -14 -897 -14 -912 1 -6 6 -13 7 -16 2z"/>
<path d="M1364 1393 c-16 -32 -30 -61 -32 -65 -2 -5 8 -8 22 -8 14 0 26 5 26
10 0 6 13 10 29 10 17 0 33 -4 36 -10 3 -5 16 -10 29 -10 l23 0 -31 65 c-41
87 -63 88 -102 8z m66 -8 c0 -17 -17 -28 -30 -20 -7 4 -7 13 0 26 12 21 30 17
30 -6z"/>
<path d="M345 975 l0 -715 23 0 c23 0 30 14 12 25 -7 4 -10 245 -10 691 0 449
3 684 10 684 6 0 10 7 10 15 0 9 -9 15 -22 15 l-23 0 0 -715z"/>
<path d="M1930 1670 c-6 -11 -9 -21 -8 -21 2 -1 15 -3 30 -4 14 -2 102 -25
195 -51 92 -25 187 -51 211 -56 23 -5 42 -14 42 -19 0 -5 7 -9 15 -9 9 0 15 9
15 23 0 19 -5 23 -32 23 -18 0 -60 8 -93 18 -33 10 -82 24 -110 32 -27 7 -81
23 -119 34 -37 11 -77 20 -87 20 -11 0 -22 7 -25 15 -8 21 -21 19 -34 -5z"/>
<path d="M130 955 l0 -65 53 0 c61 0 103 22 91 49 -4 9 -7 30 -8 46 -1 30 -1
30 -68 33 l-68 3 0 -66z m91 30 c0 -5 -7 -12 -16 -13 -23 -5 -47 6 -40 19 8
13 56 8 56 -6z m9 -50 c0 -16 -55 -22 -64 -6 -8 13 5 21 36 21 18 0 28 -5 28
-15z"/>
</g>
</svg>
