<?xml version="1.0" standalone="no"?>
<!DOCTYPE svg PUBLIC "-//W3C//DTD SVG 20010904//EN"
 "http://www.w3.org/TR/2001/REC-SVG-20010904/DTD/svg10.dtd">
<svg version="1.0" xmlns="http://www.w3.org/2000/svg"
 width="363.000000pt" height="302.000000pt" viewBox="0 0 363.000000 302.000000"
 preserveAspectRatio="xMidYMid meet">
<g transform="translate(0.000000,302.000000) scale(0.100000,-0.100000)"
fill="#000000" stroke="none">
<path d="M2187 2772 c-23 -26 -21 -58 5 -76 28 -20 52 -20 67 -2 9 11 27 7
104 -23 50 -20 314 -122 585 -226 462 -178 494 -192 512 -222 40 -67 126 -21
90 48 -12 21 -59 26 -77 8 -8 -8 -157 46 -534 191 -288 111 -554 214 -591 228
-47 17 -68 30 -68 42 0 22 -31 50 -57 50 -11 0 -27 -8 -36 -18z"/>
<path d="M2613 2773 c-3 -10 -12 -33 -19 -52 -8 -18 -14 -35 -14 -36 0 -1 13
-8 30 -15 36 -15 60 -7 60 19 0 11 5 23 10 26 20 12 10 45 -20 60 -37 19 -39
19 -47 -2z m45 -31 c2 -7 -3 -12 -12 -12 -9 0 -16 7 -16 16 0 17 22 14 28 -4z
m-12 -33 c10 -17 -13 -36 -27 -22 -12 12 -4 33 11 33 5 0 12 -5 16 -11z"/>
<path d="M2767 2729 c-37 -22 -65 -127 -37 -144 6 -4 10 11 10 39 0 36 6 52
31 81 31 35 30 44 -4 24z"/>
<path d="M2797 2703 c-13 -12 -7 -40 13 -58 11 -10 20 -22 20 -27 0 -15 -39
-8 -49 10 -9 14 -10 14 -11 2 0 -23 20 -40 47 -40 33 0 40 27 14 54 -11 12
-21 28 -21 34 0 17 30 15 36 -3 7 -16 24 -21 24 -6 0 27 -55 53 -73 34z"/>
<path d="M2875 2638 c-9 -24 -19 -48 -22 -54 -2 -7 10 -17 28 -23 39 -13 39
-13 39 -2 0 5 -11 12 -25 15 -24 6 -25 8 -11 34 21 41 28 72 18 72 -6 0 -18
-19 -27 -42z"/>
<path d="M1240 2576 c-271 -95 -419 -151 -725 -271 -121 -48 -257 -101 -302
-118 -46 -18 -83 -37 -83 -43 0 -7 11 -49 24 -95 13 -46 50 -176 81 -289 31
-113 71 -254 89 -315 l31 -110 75 0 c41 0 157 4 258 8 l182 8 0 -626 0 -625
940 0 940 0 0 626 0 627 130 -7 c72 -3 188 -9 258 -12 l128 -6 114 411 c62
226 112 412 109 414 -6 5 -580 231 -704 278 -60 23 -231 84 -379 135 l-268 94
-43 -14 c-161 -55 -367 -60 -528 -12 -48 14 -88 26 -90 25 -1 0 -108 -38 -237
-83z m240 32 c0 -37 55 -142 94 -182 20 -20 60 -48 89 -63 46 -25 63 -28 147
-28 109 0 160 18 228 80 46 41 102 144 102 187 0 26 2 28 28 22 15 -4 28 -8
30 -9 7 -6 -29 -111 -52 -149 -33 -57 -116 -132 -173 -158 -40 -18 -67 -22
-158 -23 -99 0 -116 3 -167 27 -102 48 -186 148 -216 261 -10 35 -9 39 11 47
33 13 37 12 37 -12z m242 -29 c100 -12 244 1 340 31 l58 18 0 -24 c0 -30 -18
-39 -119 -59 -102 -21 -344 -16 -430 8 -61 18 -56 14 -64 48 l-7 26 68 -18
c37 -11 106 -24 154 -30z m-297 -52 c67 -193 255 -303 455 -269 160 27 279
131 326 285 10 31 21 57 25 57 6 0 141 -47 475 -164 7 -3 3 -27 -12 -73 -54
-160 -68 -264 -68 -488 -1 -232 12 -310 74 -458 47 -111 40 -128 -35 -82 -50
31 -57 31 -45 0 l10 -25 -630 0 -630 0 0 591 0 592 31 -7 31 -6 -31 55 c-36
63 -37 68 -16 63 9 -2 26 -32 40 -71z m-99 7 c-14 -25 -26 -48 -26 -50 0 -2
12 -1 28 2 l27 6 0 -591 0 -591 -179 0 -178 0 4 25 c6 31 4 31 -51 0 -23 -14
-47 -25 -52 -25 -17 0 -9 37 20 102 69 152 101 373 82 571 -14 147 -43 294
-75 383 -17 45 -20 67 -13 69 7 2 106 37 222 78 116 41 212 73 214 71 2 -2 -8
-24 -23 -50z m324 -20 c126 -23 284 -15 424 21 l29 8 -19 -32 c-58 -100 -156
-155 -274 -155 -114 0 -194 43 -262 142 l-31 45 29 -8 c16 -4 63 -13 104 -21z
m-743 -166 c99 -330 96 -704 -8 -923 l-24 -50 -245 -10 c-135 -6 -248 -8 -253
-5 -11 9 -221 770 -214 777 7 7 698 281 712 282 6 1 20 -32 32 -71z m2159 -54
c176 -70 334 -131 353 -137 18 -6 35 -16 38 -23 4 -11 -186 -713 -206 -759 -8
-20 -13 -20 -257 -10 l-248 10 -27 60 c-68 153 -93 375 -68 603 13 125 76 382
92 382 3 0 148 -57 323 -126z m-2110 -1034 l53 -30 -6 30 -5 30 176 0 176 0 2
-532 c2 -293 2 -534 2 -536 -1 -1 -13 2 -28 7 -14 6 -26 8 -26 6 0 -3 14 -30
31 -60 l31 -55 -233 2 -234 3 -3 583 c-1 320 1 582 5 582 3 0 30 -13 59 -30z
m1661 0 c-6 -29 5 -41 18 -20 6 10 78 50 90 50 3 0 5 -263 5 -585 l0 -585
-681 0 -681 0 31 55 c17 30 31 57 31 60 0 2 -12 0 -26 -5 -14 -6 -27 -10 -30
-10 -2 0 -4 241 -4 535 l0 535 626 0 627 0 -6 -30z"/>
<path d="M1586 1948 c-26 -37 -14 -148 16 -148 11 0 10 14 -3 27 -14 14 -14
85 1 112 16 31 6 38 -14 9z"/>
<path d="M2223 1960 c27 -69 29 -88 13 -121 -16 -33 -15 -46 3 -35 34 21 30
128 -6 157 -14 12 -15 12 -10 -1z"/>
<path d="M1437 1908 c-8 -24 -18 -51 -22 -60 -5 -13 -2 -18 8 -18 8 0 17 7 21
15 3 8 12 15 21 15 9 0 18 -7 21 -15 4 -8 13 -15 21 -15 10 0 13 5 8 18 -4 9
-14 36 -22 60 -8 23 -21 42 -28 42 -7 0 -20 -19 -28 -42z"/>
<path d="M1622 1893 l3 -58 38 -3 c21 -2 37 1 37 7 0 6 -13 11 -30 11 -29 0
-30 1 -30 50 0 28 -5 50 -10 50 -7 0 -10 -22 -8 -57z"/>
<path d="M1710 1890 l0 -60 40 0 c22 0 40 5 40 10 0 6 -13 10 -30 10 -41 0
-43 37 -2 43 l27 4 -27 2 c-21 1 -28 6 -28 21 0 16 5 19 24 14 13 -3 27 -1 30
5 5 7 -7 11 -33 11 l-41 0 0 -60z"/>
<path d="M1800 1890 c0 -33 4 -60 10 -60 6 0 10 19 10 43 l1 42 25 -42 c14
-24 30 -43 35 -43 5 0 9 27 9 60 0 33 -4 60 -10 60 -5 0 -10 -19 -10 -42 l0
-43 -26 43 c-14 23 -29 42 -35 42 -5 0 -9 -27 -9 -60z"/>
<path d="M1922 1938 c-17 -17 -15 -74 4 -93 9 -9 28 -15 43 -13 20 2 27 9 29
31 3 23 0 27 -20 26 -13 0 -17 -3 -10 -6 22 -9 14 -35 -10 -31 -29 4 -38 58
-12 78 14 12 18 12 30 -5 16 -21 28 -16 18 9 -7 19 -54 22 -72 4z"/>
<path d="M2015 1940 c3 -5 13 -10 21 -10 10 0 14 -13 14 -50 0 -27 5 -50 10
-50 6 0 10 25 10 55 0 44 3 53 15 49 8 -4 15 -1 15 5 0 6 -19 11 -46 11 -27 0
-43 -4 -39 -10z"/>
<path d="M2120 1900 c0 -27 0 -53 -1 -57 0 -4 5 -9 11 -11 8 -3 11 6 8 24 -3
25 1 29 25 32 24 3 27 0 27 -27 0 -17 5 -31 10 -31 6 0 10 27 10 60 0 33 -4
60 -10 60 -5 0 -10 -11 -10 -25 0 -20 -5 -25 -25 -25 -20 0 -25 5 -25 25 0 14
-4 25 -10 25 -5 0 -10 -22 -10 -50z"/>
<path d="M1721 1474 c-11 -15 -21 -40 -21 -56 0 -33 25 -88 41 -88 5 0 3 10
-5 22 -21 29 -20 87 0 116 23 33 10 38 -15 6z"/>
<path d="M2245 1490 c-3 -5 -27 -10 -53 -11 -39 0 -43 -2 -24 -10 21 -8 23
-15 21 -56 -2 -29 1 -46 6 -43 6 3 10 25 10 49 0 36 4 45 22 52 17 6 25 4 33
-11 14 -27 12 -70 -5 -103 -10 -21 -11 -27 -2 -24 35 11 47 89 22 137 -17 33
-21 35 -30 20z"/>
<path d="M1770 1470 c-11 -11 -20 -30 -20 -43 0 -30 27 -67 49 -67 22 0 47 27
36 38 -4 4 -10 1 -12 -5 -8 -23 -42 -14 -49 12 -12 49 24 84 51 49 13 -17 14
-17 15 -2 0 15 -27 38 -44 38 -3 0 -15 -9 -26 -20z"/>
<path d="M1564 1455 c-32 -50 11 -110 62 -86 13 6 24 17 24 26 0 19 -9 19 -31
-1 -23 -21 -39 -10 -39 27 0 30 30 54 38 31 4 -13 32 -17 32 -4 0 15 -24 32
-47 32 -13 0 -29 -10 -39 -25z"/>
<path d="M1860 1420 c0 -33 4 -60 10 -60 6 0 10 14 10 30 0 25 4 30 25 30 21
0 25 -5 25 -30 0 -16 5 -30 10 -30 6 0 10 27 10 60 0 33 -4 60 -10 60 -5 0
-10 -11 -10 -25 0 -20 -5 -25 -25 -25 -20 0 -25 5 -25 25 0 14 -4 25 -10 25
-6 0 -10 -27 -10 -60z"/>
<path d="M1974 1423 l1 -58 38 -3 c21 -2 37 1 37 7 0 6 -13 11 -30 11 -41 0
-43 37 -2 43 l27 4 -27 2 c-21 1 -28 6 -28 20 0 15 8 21 33 24 29 3 28 4 -9 5
l-41 2 1 -57z"/>
<path d="M2067 1474 c-15 -16 -5 -36 28 -55 19 -12 32 -25 29 -30 -8 -13 -42
-11 -47 4 -2 6 -8 9 -12 5 -11 -11 14 -38 36 -38 23 0 50 27 43 44 -3 8 -19
20 -35 26 -32 14 -37 27 -14 37 9 3 22 -2 31 -13 14 -18 15 -18 12 1 -2 14
-12 21 -33 23 -17 2 -34 0 -38 -4z"/>
<path d="M2953 2598 l-21 -53 22 -12 c11 -7 30 -12 41 -12 15 0 13 4 -12 17
-39 21 -32 47 10 36 34 -8 35 3 2 16 -16 6 -23 15 -19 24 4 11 12 13 31 5 30
-11 33 -11 33 0 0 5 -8 11 -17 14 -10 2 -25 8 -34 11 -12 5 -21 -5 -36 -46z"/>
<path d="M3036 2560 c-10 -28 -17 -52 -15 -53 7 -5 60 -27 64 -27 3 0 5 4 5
10 0 5 -11 12 -25 16 -25 6 -33 28 -15 39 5 3 19 1 30 -5 12 -6 20 -7 20 -1 0
5 -9 13 -20 16 -29 9 -27 39 3 31 12 -3 28 -6 35 -6 8 0 12 -19 12 -60 0 -33
4 -60 9 -60 11 0 81 83 81 96 0 4 -17 -9 -39 -30 l-39 -38 5 44 c5 43 4 45
-30 61 -53 25 -61 22 -81 -33z"/>
<path d="M3212 2489 l-21 -50 35 -15 c42 -18 60 -11 20 7 -16 8 -25 19 -23 28
3 16 10 17 40 6 9 -4 17 -3 17 3 0 6 -11 14 -25 19 -18 6 -22 12 -15 22 7 12
13 13 34 3 16 -7 26 -8 26 -2 0 10 -41 30 -59 30 -5 0 -18 -23 -29 -51z"/>
<path d="M3314 2504 c9 -34 -10 -90 -37 -109 -11 -8 -18 -18 -14 -21 4 -4 18
3 32 16 32 30 50 92 35 120 -15 28 -23 25 -16 -6z"/>
</g>
</svg>
