<svg version="1.0" xmlns="http://www.w3.org/2000/svg" width="600.000000pt" height="389.000000pt" viewBox="0 0 600.000000 389.000000" preserveAspectRatio="xMidYMid meet" style="width: 996.2px; height: auto;"> <g transform="translate(0.000000,389.000000) scale(0.100000,-0.100000)" fill="#000000" stroke="none"> <path d="M2915 3789 c-145 -29 -274 -139 -358 -304 -34 -67 -72 -199 -93 -315 -17 -103 -24 -347 -11 -446 l8 -60 -68 -24 c-93 -32 -654 -257 -738 -295 -16 -8 -145 -65 -285 -128 -140 -63 -280 -126 -310 -140 -30 -14 -192 -86 -360 -162 -168 -75 -332 -150 -365 -165 -33 -15 -98 -44 -145 -65 -47 -21 -88 -41 -93 -44 -4 -4 2 -34 12 -67 11 -32 49 -160 86 -283 36 -124 68 -227 70 -230 5 -4 188 13 1114 105 134 13 248 21 253 18 16 -10 73 -106 92 -154 33 -83 116 -510 141 -720 4 -30 9 -63 11 -72 5 -17 67 -18 1120 -18 883 0 1115 3 1118 13 2 6 11 66 20 133 17 133 63 386 96 534 21 99 71 215 112 263 l23 27 205 -20 c242 -24 865 -85 1033 -102 64 -6 119 -9 122 -6 6 6 175 560 175 576 0 6 -4 12 -10 12 -5 0 -204 88 -442 196 -1034 468 -1162 525 -1513 665 -279 111 -379 149 -394 149 -10 0 -12 8 -8 28 15 74 18 238 8 356 -36 392 -180 650 -408 730 -56 20 -157 27 -218 15z m65 -620 l0 -602 -92 7 c-117 9 -221 29 -320 63 l-77 26 -7 75 c-11 124 2 385 26 496 68 319 225 500 463 535 4 1 7 -270 7 -600z m158 569 c98 -36 204 -142 266 -265 83 -165 128 -491 103 -734 l-8 -76 -92 -31 c-118 -40 -179 -52 -299 -59 l-98 -6 0 602 0 602 38 -7 c20 -4 61 -16 90 -26z m-378 -1183 c52 -8 123 -15 158 -15 74 0 76 -5 27 -86 -19 -32 -35 -61 -35 -65 0 -4 16 -3 35 1 19 4 35 6 35 4 0 -2 0 -265 0 -584 l0 -580 -597 0 -598 0 4 22 c1 13 7 31 12 41 10 18 0 23 -17 8 -5 -5 -26 -19 -47 -30 -21 -12 -49 -29 -63 -37 -13 -9 -24 -12 -24 -6 0 6 4 13 9 16 13 8 48 148 60 239 28 201 -3 494 -77 747 l-19 65 86 37 c159 69 585 240 676 272 l90 31 95 -32 c52 -18 138 -39 190 -48z m1070 -37 c151 -61 334 -134 406 -165 l130 -54 -33 -132 c-47 -188 -63 -313 -65 -504 -1 -181 16 -309 53 -392 24 -54 24 -54 -3 -38 -13 8 -49 28 -81 46 -49 27 -58 29 -53 14 3 -10 8 -29 11 -43 l6 -25 -596 0 -595 0 0 586 0 586 40 -7 c22 -4 40 -6 40 -5 0 2 -18 34 -40 71 -22 38 -40 71 -40 75 0 3 51 9 113 12 114 6 211 27 327 69 36 13 74 22 85 19 11 -2 144 -53 295 -113z m-825 -38 c-3 -5 -2 -10 4 -10 5 0 8 -8 7 -17 -2 -10 1 -21 6 -24 5 -3 0 -9 -11 -12 -15 -4 -25 1 -32 15 -9 17 -9 20 3 15 11 -4 14 1 10 19 -2 14 0 24 7 24 7 0 9 -4 6 -10z m-1350 -425 c62 -302 58 -569 -10 -775 -9 -28 -22 -53 -29 -55 -9 -4 -518 -55 -826 -85 -58 -5 -195 -18 -305 -29 -110 -11 -200 -19 -201 -18 0 1 -15 54 -33 117 -18 63 -53 182 -77 264 -25 81 -44 149 -42 150 2 1 95 43 208 93 275 122 1192 538 1227 557 l28 14 18 -56 c9 -31 28 -111 42 -177z m2950 137 c199 -89 366 -164 805 -364 162 -74 332 -150 377 -169 62 -25 81 -38 77 -49 -10 -27 -112 -353 -134 -430 -12 -41 -25 -78 -28 -82 -4 -4 -162 9 -352 28 -499 49 -958 94 -970 94 -16 0 -38 60 -63 164 -18 78 -21 119 -20 291 1 189 3 209 36 360 52 240 57 256 76 246 9 -5 97 -45 196 -89z m-2835 -984 c0 -4 -5 -8 -11 -8 -5 0 -7 -6 -3 -12 4 -7 -2 -5 -13 5 -11 9 -27 17 -37 17 -9 0 -15 4 -11 10 3 5 13 6 22 3 12 -5 14 -3 8 7 -5 9 -4 11 3 6 7 -4 12 -1 12 6 1 14 30 -20 30 -34z m2492 24 c7 -7 19 -12 28 -12 8 0 2 -7 -13 -15 -21 -11 -34 -12 -48 -5 -23 13 -25 22 -3 13 14 -5 15 -3 5 15 -9 16 -8 20 4 18 8 -1 21 -8 27 -14z m-2514 -80 c24 -13 45 -22 47 -20 3 2 1 19 -4 36 l-10 32 602 0 602 0 0 -406 0 -406 -42 7 -43 6 46 -77 c25 -42 44 -77 42 -78 -2 0 -246 0 -543 2 l-540 2 -18 129 c-37 283 -106 604 -150 701 -14 30 -39 70 -56 88 -38 41 -39 50 -3 26 15 -10 46 -29 70 -42z m2446 13 c-3 -19 -4 -35 -1 -35 3 0 33 16 67 35 76 43 86 44 49 4 -64 -68 -103 -195 -163 -524 -19 -104 -40 -236 -47 -292 l-12 -103 -539 -2 c-296 -2 -538 0 -538 5 0 11 61 116 71 123 24 14 6 25 -33 19 l-43 -7 3 406 2 406 596 0 595 0 -7 -35z m-1194 -805 c0 -5 7 -7 15 -4 8 4 15 1 15 -5 0 -6 -4 -11 -10 -11 -5 0 -10 -9 -10 -20 0 -13 -5 -18 -16 -13 -8 3 -13 11 -10 19 3 7 0 14 -6 16 -6 2 -8 10 -4 16 9 14 26 16 26 2z" class="" stroke-width="1"></path>   <path d="M3308 1803 c-37 -63 -31 -149 12 -188 23 -21 27 -7 5 21 -19 26 -20 134 0 160 16 21 19 34 7 34 -4 0 -15 -12 -24 -27z"></path> <path d="M4200 1818 c0 -7 7 -22 15 -32 23 -31 20 -127 -6 -160 -14 -18 -16 -26 -7 -26 45 0 65 138 28 198 -21 34 -30 40 -30 20z"></path> <path d="M3089 1730 c-25 -76 -25 -80 -8 -80 11 0 19 7 19 15 0 10 11 15 35 15 24 0 35 -5 35 -15 0 -9 9 -15 24 -15 l24 0 -18 38 c-10 20 -24 56 -31 80 -9 32 -17 42 -33 42 -17 -1 -26 -15 -47 -80z m64 0 c4 -15 0 -20 -14 -20 -20 0 -23 8 -13 34 7 20 20 13 27 -14z" class=""></path> <path d="M3360 1730 l0 -80 56 0 c36 0 53 4 49 11 -4 6 -23 9 -43 7 l-35 -3 2 73 c2 60 0 72 -13 72 -13 0 -16 -14 -16 -80z"></path> <path d="M3480 1730 l0 -80 55 0 c33 0 55 4 55 11 0 6 -16 9 -41 7 -39 -3 -42 -1 -45 25 -2 25 0 27 37 27 21 0 39 5 39 10 0 6 -18 10 -40 10 -36 0 -40 3 -40 25 0 23 4 25 45 25 25 0 45 5 45 10 0 6 -25 10 -55 10 l-55 0 0 -80z" class=""></path> <path d="M3610 1730 c0 -59 3 -80 13 -80 10 0 12 16 10 63 -4 68 -5 69 49 -19 41 -66 53 -58 53 36 0 57 -4 80 -12 80 -9 0 -13 -19 -13 -62 l0 -63 -37 63 c-51 85 -63 82 -63 -18z" class=""></path> <path d="M3776 1788 c-9 -12 -16 -38 -16 -58 0 -51 24 -80 65 -80 53 0 65 8 65 46 0 32 -2 34 -35 34 -19 0 -35 -4 -35 -10 0 -5 11 -10 24 -10 20 0 23 -4 19 -21 -7 -26 -26 -34 -52 -19 -16 8 -21 20 -21 50 0 21 3 45 6 54 9 23 51 20 65 -5 8 -15 14 -18 22 -10 7 7 5 16 -8 31 -25 28 -79 27 -99 -2z" class=""></path> <path d="M3900 1800 c0 -5 14 -10 30 -10 l30 0 0 -70 c0 -40 4 -70 10 -70 6 0 10 30 10 70 0 68 1 70 25 70 14 0 25 5 25 10 0 6 -28 10 -65 10 -37 0 -65 -4 -65 -10z"></path> <path d="M4050 1730 c0 -64 3 -80 15 -80 10 0 15 11 15 35 0 34 1 35 38 35 38 0 38 0 34 -35 -3 -27 -1 -35 12 -35 13 0 16 13 16 80 0 67 -3 80 -16 80 -13 0 -15 -8 -12 -35 4 -35 4 -35 -34 -35 -37 0 -38 1 -38 35 0 24 -5 35 -15 35 -12 0 -15 -16 -15 -80z"></path> <path d="M4246 1227 c3 -10 9 -15 12 -12 3 3 0 11 -7 18 -10 9 -11 8 -5 -6z"></path> <path d="M3305 1103 c-35 -52 -28 -161 11 -194 22 -18 30 -2 9 21 -35 39 -31 108 13 193 10 20 -18 3 -33 -20z"></path> <path d="M4040 1124 c0 -4 8 -16 18 -27 12 -14 17 -36 17 -82 0 -46 -5 -68 -17 -82 -20 -22 -23 -33 -8 -33 6 0 19 15 30 33 25 41 26 111 2 157 -17 31 -42 52 -42 34z"></path> <path d="M3087 1092 c-17 -19 -23 -76 -11 -107 4 -10 21 -23 38 -30 26 -11 35 -11 58 1 16 8 28 21 28 29 0 20 -36 19 -44 0 -8 -21 -33 -19 -46 4 -14 28 -12 67 5 84 16 17 55 11 55 -7 0 -6 9 -12 20 -13 21 -2 20 7 -8 40 -20 23 -74 22 -95 -1z"></path> <path d="M3366 1085 c-48 -73 19 -175 83 -127 30 22 38 42 17 42 -9 0 -16 -7 -16 -16 0 -11 -8 -14 -32 -12 -33 3 -33 3 -33 58 0 51 2 55 24 58 16 3 30 -4 41 -18 22 -29 34 -11 14 18 -22 32 -76 30 -98 -3z"></path> <path d="M3505 1030 c-1 -59 3 -81 13 -85 11 -4 13 4 10 35 l-4 40 43 0 42 0 -6 -35 c-4 -28 -2 -35 11 -35 13 0 16 13 16 80 0 66 -3 80 -16 80 -12 0 -15 -8 -12 -32 3 -32 2 -33 -38 -36 l-40 -3 4 36 c3 25 0 35 -9 35 -11 0 -14 -19 -14 -80z" class=""></path> <path d="M3660 1030 l0 -80 56 0 c36 0 53 4 49 11 -4 6 -23 9 -43 7 -32 -3 -35 -1 -36 25 -2 25 1 27 36 27 21 0 38 5 38 10 0 6 -17 10 -39 10 -34 0 -38 3 -38 25 0 23 3 25 43 25 24 0 44 5 44 10 0 6 -25 10 -55 10 l-55 0 0 -80z"></path> <path d="M3796 1091 c-24 -26 -7 -56 39 -71 24 -8 35 -18 35 -31 0 -28 -46 -29 -67 -2 -16 21 -31 7 -17 -15 15 -23 86 -28 103 -8 24 29 0 60 -62 80 -11 3 -17 13 -15 23 4 23 46 30 54 9 6 -17 34 -22 34 -8 0 17 -37 42 -62 42 -14 0 -33 -9 -42 -19z"></path> <path d="M3910 1100 c0 -5 11 -10 25 -10 24 0 25 -2 25 -70 0 -49 4 -70 13 -70 9 0 11 19 9 70 -4 69 -3 70 22 70 14 0 26 5 26 10 0 6 -27 10 -60 10 -33 0 -60 -4 -60 -10z"></path>   <path d="M2238 2822 c12 -16 22 -34 22 -39 0 -6 -71 -40 -157 -78 -87 -37 -232 -100 -323 -140 -91 -40 -291 -128 -445 -195 -154 -67 -356 -156 -450 -197 -93 -41 -273 -120 -400 -175 -126 -55 -250 -108 -274 -119 -24 -10 -45 -19 -47 -19 -2 0 -4 12 -4 28 0 15 -4 33 -9 41 -7 11 -12 9 -22 -10 -7 -13 -30 -47 -51 -76 -21 -29 -38 -55 -38 -58 0 -3 24 -5 53 -5 28 0 68 -4 86 -10 45 -13 49 -6 22 31 -13 17 -21 32 -19 34 5 5 154 72 368 165 156 67 341 149 980 430 482 212 741 323 745 318 2 -1 7 -18 12 -37 l9 -34 56 75 57 76 -62 6 c-34 4 -77 10 -96 13 l-34 6 21 -31z m96 -19 c20 -11 14 -33 -10 -33 -8 0 -12 -5 -9 -11 4 -6 -1 -6 -12 2 -21 13 -27 39 -9 39 6 0 4 5 -4 10 -12 8 -11 10 5 7 11 -1 29 -8 39 -14z m-2188 -949 c-3 -8 -2 -12 4 -9 14 9 12 -8 -2 -24 -10 -11 -10 -13 0 -7 6 4 12 2 12 -4 0 -7 -8 -9 -22 -4 -13 4 -29 7 -35 7 -13 0 -12 3 22 44 14 17 28 16 21 -3z" class=""></path> <path d="M2310 2806 c0 -2 8 -10 18 -17 15 -13 16 -12 3 4 -13 16 -21 21 -21 13z"></path> <path d="M1530 2754 c0 -3 15 -20 34 -37 42 -40 64 -107 49 -148 -9 -23 -9 -29 2 -29 21 0 29 66 15 113 -7 23 -28 56 -47 74 -32 30 -53 41 -53 27z"></path> <path d="M1470 2712 c-19 -9 -36 -17 -38 -18 -2 -1 8 -30 22 -65 15 -34 26 -68 26 -76 0 -17 0 -17 54 7 25 10 46 24 46 30 0 12 -13 13 -25 1 -6 -5 -19 -12 -31 -15 -16 -5 -23 0 -32 19 -11 23 -9 26 25 40 20 8 33 18 30 21 -4 4 -20 1 -38 -6 -26 -11 -32 -11 -40 1 -16 25 -10 37 26 49 19 6 35 16 35 21 0 13 -20 10 -60 -9z"></path>  <path d="M1392 2610 c2 -38 1 -70 -2 -70 -3 1 -22 23 -43 50 -38 49 -57 62 -57 38 0 -17 116 -132 122 -121 8 18 -4 173 -14 173 -6 0 -9 -26 -6 -70z"></path> <path d="M1213 2602 l-32 -17 30 -70 c17 -38 32 -71 34 -73 2 -2 25 6 52 18 26 12 42 24 36 27 -7 2 -27 -3 -45 -11 -36 -18 -34 -19 -43 15 -5 22 -2 28 24 39 17 7 31 16 31 21 0 12 -6 11 -41 -7 -35 -17 -34 -18 -43 14 -6 19 -2 25 28 37 20 9 36 17 36 20 0 11 -36 3 -67 -13z"></path>  <path d="M1108 2558 l-46 -20 30 -71 c17 -40 32 -74 34 -76 7 -8 94 35 94 47 0 14 -16 16 -24 3 -10 -16 -59 -23 -67 -9 -15 23 -10 36 21 47 17 5 30 15 30 20 0 14 -6 14 -40 -4 -27 -14 -30 -14 -40 5 -14 26 -7 37 30 45 17 4 30 13 30 21 0 8 -1 14 -2 13 -2 0 -24 -10 -50 -21z"></path> <path d="M958 2495 c-4 -5 46 -141 57 -153 6 -7 95 41 90 49 -4 5 -18 3 -35 -6 -16 -8 -33 -15 -38 -15 -4 0 -19 29 -33 65 -23 63 -29 71 -41 60z"></path> <path d="M872 2458 c-12 -6 -25 -22 -29 -36 -8 -32 19 -53 64 -50 45 3 65 -18 38 -38 -19 -14 -30 -14 -67 1 -25 10 -23 -12 3 -25 30 -17 78 -2 92 27 10 22 8 28 -13 45 -15 12 -33 18 -49 15 -31 -6 -51 1 -51 19 0 21 38 38 55 24 17 -14 37 -10 27 6 -11 18 -45 23 -70 12z"></path> <path d="M786 2428 c-18 -68 9 -147 61 -179 40 -25 57 -19 18 7 -42 28 -68 89 -62 146 6 49 -6 67 -17 26z"></path>  <path d="M605 2347 c-16 -6 -31 -12 -32 -12 -3 -1 57 -147 62 -153 4 -5 59 21 78 36 23 20 22 62 -2 69 -13 3 -17 11 -14 24 11 43 -30 59 -92 36z m61 -29 c6 -10 -20 -38 -37 -38 -12 0 -17 39 -5 44 20 8 35 6 42 -6z m30 -60 c6 -10 -20 -38 -37 -38 -10 0 -20 30 -13 41 8 13 41 11 50 -3z"></path> <path d="M1085 2310 c-3 -6 1 -7 9 -4 18 7 21 14 7 14 -6 0 -13 -4 -16 -10z"></path>     </g> </svg>